<svg xmlns="http://www.w3.org/2000/svg" version="1.1" xmlns:xlink="http://www.w3.org/1999/xlink" xmlns:svgjs="http://svgjs.com/svgjs" width="522" height="522"><svg id="SvgjsSvg1000" data-name="Layer 1" xmlns="http://www.w3.org/2000/svg" viewBox="0 0 522 522">
  <defs>
    <style>
      .cls-1 {
        stroke: #faff2e;
        stroke-width: 23px;
      }

      .cls-1, .cls-2, .cls-3 {
        stroke-miterlimit: 10;
      }

      .cls-2 {
        font-size: 101px;
        opacity: .93;
      }

      .cls-2, .cls-3 {
        font-family: MyriadPro-Regular, 'Myriad Pro';
        glyph-orientation-vertical: 0deg;
        stroke: #000;
        stroke-width: 9px;
        text-orientation: upright;
        writing-mode: tb;
      }

      .cls-3 {
        font-size: 91px;
      }

      .cls-4, .cls-5, .cls-6, .cls-7, .cls-8, .cls-9, .cls-10 {
        stroke-width: 0px;
      }

      .cls-5 {
        fill: #730073;
      }

      .cls-6 {
        fill: #450043;
      }

      .cls-7 {
        fill: #8be1ff;
      }

      .cls-8 {
        fill: #fff;
      }

      .cls-9 {
        fill: #faff2e;
      }

      .cls-10 {
        fill: #018b00;
      }
    </style>
  </defs>
  <g>
    <path class="cls-7" d="m261,512.5c-67.18,0-130.34-26.16-177.84-73.66-47.5-47.5-73.66-110.66-73.66-177.84s26.16-130.34,73.66-177.84S193.82,9.5,261,9.5s130.33,26.16,177.84,73.66c47.5,47.5,73.66,110.66,73.66,177.84s-26.16,130.33-73.66,177.84c-47.5,47.5-110.66,73.66-177.84,73.66Z"></path>
    <path class="cls-4" d="m261,19c32.68,0,64.37,6.4,94.19,19.01,28.82,12.19,54.7,29.64,76.93,51.87,22.23,22.23,39.68,48.11,51.87,76.93,12.61,29.82,19.01,61.51,19.01,94.19s-6.4,64.37-19.01,94.19c-12.19,28.82-29.64,54.7-51.87,76.93-22.23,22.23-48.11,39.68-76.93,51.87-29.82,12.61-61.51,19.01-94.19,19.01s-64.37-6.4-94.19-19.01c-28.82-12.19-54.7-29.64-76.93-51.87-22.23-22.23-39.68-48.11-51.87-76.93-12.61-29.82-19.01-61.51-19.01-94.19s6.4-64.37,19.01-94.19c12.19-28.81,29.64-54.7,51.87-76.93,22.23-22.23,48.11-39.68,76.93-51.87,29.82-12.61,61.51-19.01,94.19-19.01m0-19C116.85,0,0,116.85,0,261s116.85,261,261,261,261-116.85,261-261S405.15,0,261,0h0Z"></path>
  </g>
  <g>
    <rect class="cls-4" x="252.5" y="279.5" width="16" height="214"></rect>
    <polygon class="cls-10" points="277 271 244 271 244 502 277 502 277 271 277 271"></polygon>
  </g>
  <g>
    <ellipse class="cls-6" cx="260.5" cy="242" rx="16" ry="23.5"></ellipse>
    <path class="cls-5" d="m260.5,202c-17.95,0-32.5,17.91-32.5,40s14.55,40,32.5,40,32.5-17.91,32.5-40-14.55-40-32.5-40h0Z"></path>
  </g>
  <g>
    <rect class="cls-4" x="244" y="193" width="33" height="17"></rect>
    <polygon class="cls-9" points="277 193 244 193 244 210 277 210 277 193 277 193"></polygon>
  </g>
  <g>
    <ellipse class="cls-6" cx="260.5" cy="242" rx="16" ry="23.5"></ellipse>
    <path class="cls-5" d="m260.5,202c-17.95,0-32.5,17.91-32.5,40s14.55,40,32.5,40,32.5-17.91,32.5-40-14.55-40-32.5-40h0Z"></path>
  </g>
  <g>
    <rect class="cls-4" x="252.5" y="279.5" width="16" height="214"></rect>
    <polygon class="cls-10" points="277 271 244 271 244 502 277 502 277 271 277 271"></polygon>
  </g>
  <g>
    <polygon class="cls-4" points="266 202 257 202 257 91 266 60 266 202"></polygon>
    <polygon class="cls-9" points="266 60 257 91 257 202 266 202 266 60 266 60"></polygon>
  </g>
  <polyline class="cls-1" points="282.95 201.03 249.95 201.03 249.95 218.03"></polyline>
  <g>
    <ellipse class="cls-6" cx="260.5" cy="242" rx="16" ry="23.5"></ellipse>
    <path class="cls-5" d="m260.5,202c-17.95,0-32.5,17.91-32.5,40s14.55,40,32.5,40,32.5-17.91,32.5-40-14.55-40-32.5-40h0Z"></path>
  </g>
  <g>
    <polygon class="cls-4" points="260.59 76.5 261.01 75.39 261.36 76.5 260.59 76.5"></polygon>
    <polygon class="cls-9" points="262 40 244 88 277 88 262 40 262 40"></polygon>
  </g>
  <ellipse class="cls-8" cx="105.5" cy="136" rx="31.5" ry="20"></ellipse>
  <ellipse class="cls-8" cx="115" cy="161" rx="54" ry="26"></ellipse>
  <circle class="cls-8" cx="193.5" cy="211.5" r="1.5"></circle>
  <path class="cls-8" d="m86,186.5c0,14.64,16.34,26.5,36.5,26.5s53.5-11.36,53.5-26-33.34-27-53.5-27-36.5,11.86-36.5,26.5Z"></path>
  <g>
    <path class="cls-4" d="m380.5,183.63c-23.33,0-36.23-6.99-38.03-10.13,1.8-3.14,14.7-10.13,38.03-10.13s36.23,6.99,38.03,10.13c-1.8,3.14-14.7,10.13-38.03,10.13Z"></path>
    <path class="cls-8" d="m380.5,172.73c4.48,0,8.5.3,12.05.77-3.55.47-7.57.77-12.05.77s-8.5-.3-12.05-.77c3.55-.47,7.57-.77,12.05-.77m0-18.73c-26.23,0-47.5,8.73-47.5,19.5s21.27,19.5,47.5,19.5,47.5-8.73,47.5-19.5-21.27-19.5-47.5-19.5h0Z"></path>
  </g>
  <g>
    <path class="cls-4" d="m370.5,157c-8.17,0-14.27-1.46-18.21-3,3.94-1.54,10.04-3,18.21-3s14.27,1.46,18.21,3c-3.94,1.54-10.04,3-18.21,3Z"></path>
    <path class="cls-8" d="m370.5,136c-20.71,0-37.5,8.06-37.5,18s16.79,18,37.5,18,37.5-8.06,37.5-18-16.79-18-37.5-18h0Z"></path>
  </g>
  <g>
    <ellipse class="cls-4" cx="415" cy="146" rx="3" ry="15"></ellipse>
    <path class="cls-8" d="m415,131c-1.66,0-3,6.72-3,15s1.34,15,3,15,3-6.72,3-15-1.34-15-3-15h0Z"></path>
  </g>
  <g>
    <ellipse class="cls-4" cx="407.5" cy="145.5" rx="36.5" ry="14.5"></ellipse>
    <path class="cls-8" d="m407.5,116c-28.44,0-51.5,13.21-51.5,29.5s23.06,29.5,51.5,29.5,51.5-13.21,51.5-29.5-23.06-29.5-51.5-29.5h0Z"></path>
  </g>
  <g>
    <ellipse class="cls-4" cx="356" cy="75.5" rx="26" ry="10.5"></ellipse>
    <path class="cls-8" d="m356,53c-20.99,0-38,10.07-38,22.5s17.01,22.5,38,22.5,38-10.07,38-22.5-17.01-22.5-38-22.5h0Z"></path>
  </g>
  <g>
    <path class="cls-4" d="m333,104c-13.39,0-21.87-4.06-24.45-6.5,2.58-2.44,11.06-6.5,24.45-6.5s21.87,4.06,24.45,6.5c-2.58,2.44-11.06,6.5-24.45,6.5Z"></path>
    <path class="cls-8" d="m333,79c-20.43,0-37,8.28-37,18.5s16.57,18.5,37,18.5,37-8.28,37-18.5-16.57-18.5-37-18.5h0Z"></path>
  </g>
  <g>
    <ellipse class="cls-4" cx="189.5" cy="87" rx="26.5" ry="11"></ellipse>
    <path class="cls-8" d="m189.5,64c-21.26,0-38.5,10.3-38.5,23s17.24,23,38.5,23,38.5-10.3,38.5-23-17.24-23-38.5-23h0Z"></path>
  </g>
  <g>
    <path class="cls-4" d="m194.5,64c-10.24,0-16.95-2.59-20.03-4.5,3.08-1.91,9.79-4.5,20.03-4.5s16.95,2.59,20.03,4.5c-3.08,1.91-9.79,4.5-20.03,4.5Z"></path>
    <path class="cls-8" d="m194.5,43c-18.5,0-33.5,7.39-33.5,16.5s15,16.5,33.5,16.5,33.5-7.39,33.5-16.5-15-16.5-33.5-16.5h0Z"></path>
  </g>
  <text svgjs:data="{&quot;leading&quot;:&quot;1.3&quot;}"></text>
  <text class="cls-2" transform="translate(145.37 241.57)" svgjs:data="{&quot;leading&quot;:&quot;1.3&quot;}"><tspan x="0" y="0" svgjs:data="{&quot;leading&quot;:&quot;1.3&quot;}">KT</tspan></text>
  <text class="cls-3" transform="translate(363.06 258)" svgjs:data="{&quot;leading&quot;:&quot;1.3&quot;}"><tspan x="0" y="0" svgjs:data="{&quot;leading&quot;:&quot;1.3&quot;}">SL</tspan></text>
</svg><style>@media (prefers-color-scheme: light) { :root { filter: none; } }
</style></svg>